<svg width="800" height="260" viewBox="0 0 800 260" fill="none" xmlns="http://www.w3.org/2000/svg">
  <defs>
    <linearGradient id="bar-grad" x1="0" y1="0" x2="1" y2="0">
      <stop offset="0%" stop-color="#440000" />
      <stop offset="100%" stop-color="#cc0000" />
    </linearGradient>
  </defs>
  <style>
    @import url('https://fonts.googleapis.com/css2?family=Share+Tech+Mono&amp;display=swap');
    .skill-name {
      font-family: 'Share Tech Mono', monospace;
      font-size: 14px;
      fill: #cc6677;
    }
    .skill-pct {
      font-family: 'Share Tech Mono', monospace;
      font-size: 14px;
      fill: #cc0000;
      text-anchor: end;
    }
    .bar-fill {
      animation: fill-grow 1.5s ease-out forwards;
      transform-origin: left;
    }
    @keyframes fill-grow {
      from { transform: scaleX(0); }
      to { transform: scaleX(1); }
    }
  </style>
  <!-- Skill 1: Machine Learning (82%) -->
  <text x="10" y="25" class="skill-name">Machine Learning</text>
  <rect x="180" y="14" width="550" height="12" rx="6" fill="#1a0010" stroke="#2a0015" stroke-width="1"/>
  <rect x="180" y="14" width="451" height="12" rx="6" fill="url(#bar-grad)" class="bar-fill"/>
  <text x="780" y="25" class="skill-pct">82%</text>

  <!-- Skill 2: Python (88%) -->
  <text x="10" y="65" class="skill-name">Python</text>
  <rect x="180" y="54" width="550" height="12" rx="6" fill="#1a0010" stroke="#2a0015" stroke-width="1"/>
  <rect x="180" y="54" width="484" height="12" rx="6" fill="url(#bar-grad)" class="bar-fill"/>
  <text x="780" y="65" class="skill-pct">88%</text>

  <!-- Skill 3: Deep Learning (75%) -->
  <text x="10" y="105" class="skill-name">Deep Learning</text>
  <rect x="180" y="94" width="550" height="12" rx="6" fill="#1a0010" stroke="#2a0015" stroke-width="1"/>
  <rect x="180" y="94" width="412.5" height="12" rx="6" fill="url(#bar-grad)" class="bar-fill"/>
  <text x="780" y="105" class="skill-pct">75%</text>

  <!-- Skill 4: Data Analysis (79%) -->
  <text x="10" y="145" class="skill-name">Data Analysis</text>
  <rect x="180" y="134" width="550" height="12" rx="6" fill="#1a0010" stroke="#2a0015" stroke-width="1"/>
  <rect x="180" y="134" width="434.5" height="12" rx="6" fill="url(#bar-grad)" class="bar-fill"/>
  <text x="780" y="145" class="skill-pct">79%</text>

  <!-- Skill 5: NLP / LLMs (70%) -->
  <text x="10" y="185" class="skill-name">NLP / LLMs</text>
  <rect x="180" y="174" width="550" height="12" rx="6" fill="#1a0010" stroke="#2a0015" stroke-width="1"/>
  <rect x="180" y="174" width="385" height="12" rx="6" fill="url(#bar-grad)" class="bar-fill"/>
  <text x="780" y="185" class="skill-pct">70%</text>

  <!-- Skill 6: Math & Stats (73%) -->
  <text x="10" y="225" class="skill-name">Math & Stats</text>
  <rect x="180" y="214" width="550" height="12" rx="6" fill="#1a0010" stroke="#2a0015" stroke-width="1"/>
  <rect x="180" y="214" width="401.5" height="12" rx="6" fill="url(#bar-grad)" class="bar-fill"/>
  <text x="780" y="225" class="skill-pct">73%</text>
</svg>
